:SAMPLES-PER-SECOND 30
:FRAME-RANGE 1-3549
:FULLY-SPECIFIED
:DEGREES
444
root  -74.4085 32.4067 -10.0139 178.712 12.8001 -178.984
RightUpLeg  -42.0772 1.65951 3.6401
RightLeg  66.3321 -3.37631 -9.0811
RightFoot  -22.2039 0.0274687 1.87073
RightToes  -1.11029e-010 1.2921e-014 -6.02303e-014
Spine  22.0721 0.443379 1.8549
Spine1  -9.12875 0.554079 0.18686
HEad  -21.619 -1.41757 0.899592
LeftShoulder1  1.33644 -3.76147 -11.2026
LeftArm  -49.7022 -65.9609 -14.7333
LeftForeArm  39.0205 -45.2605 -8.57997
LeftHand  -0.474023 1.39286 13.7166
RightShoulder  5.702 28.4772 10.3719
RightArm  -62.0861 30.8297 -6.55796
RightForeArm  41.8832 57.8329 14.1473
RightHand  -0.908005 2.64727 -13.287
LeftUpLeg  -41.551 2.43226 5.58043
LeftLeg  66.5692 -2.16435 -4.75908
LeftFoot  -23.1787 -0.324381 -4.46881
LeftToes  -1.9349e-011 -1.19469e-011 -2.02219e-012
445
root  -74.2191 31.3298 -11.0119 177.373 14.6658 -179.099
RightUpLeg  -42.274 2.30275 4.05297
RightLeg  72.8636 -2.18429 -8.9954
RightFoot  -26.6411 0.0525703 1.73701
RightToes  -1.11029e-010 1.2921e-014 -6.02303e-014
Spine  21.8152 0.597519 2.21055
Spine1  -9.5763 0.777063 0.223816
HEad  -22.0919 -0.128465 0.66622
LeftShoulder1  1.24459 -3.41474 -10.7509
LeftArm  -56.4862 -65.7318 -8.23425
LeftForeArm  39.8022 -46.5895 -8.99697
LeftHand  -0.462831 1.41463 13.4617
RightShoulder  5.15149 30.3286 7.45374
RightArm  -65.8319 31.3136 -7.8695
RightForeArm  41.7284 56.9046 13.5943
RightHand  -0.957157 2.67988 -13.9346
LeftUpLeg  -41.0961 0.919576 6.17394
LeftLeg  72.9528 -1.00225 -2.69114
LeftFoot  -27.4499 -0.718972 -6.24204
LeftToes  -1.9349e-011 -1.19469e-011 -2.02219e-012
446
root  -73.9122 30.8862 -11.8456 176.2 15.8983 179.841
RightUpLeg  -41.1665 2.8123 3.53634
RightLeg  76.0762 -1.66362 -9.08131
RightFoot  -29.6042 0.0979626 1.86103
RightToes  -1.11029e-010 1.2921e-014 -6.02303e-014
Spine  21.2459 1.04016 0.596649
Spine1  -9.52369 1.10271 0.00761225
HEad  -22.8882 0.854044 0.643357
LeftShoulder1  1.18108 -3.31428 -10.0095
LeftArm  -61.6207 -65.7088 -3.36064
LeftForeArm  40.6349 -47.5712 -9.30161
LeftHand  -0.414798 1.89581 13.6649
RightShoulder  4.6961 30.7367 5.7663
RightArm  -68.2597 32.331 -8.45718
RightForeArm  41.5981 55.9796 13.0712
RightHand  -0.944377 2.55748 -13.9555
LeftUpLeg  -39.2024 0.182315 5.27819
LeftLeg  75.4342 -0.360923 -0.375606
LeftFoot  -30.3706 -0.953436 -6.77369
LeftToes  -1.9349e-011 -1.19469e-011 -2.02219e-012
447
root  -73.605 30.8348 -12.5442 175.767 16.1458 179.273
RightUpLeg  -39.7061 2.61874 3.43586
RightLeg  77.0048 -1.56168 -9.34616
RightFoot  -31.3114 0.0945732 1.7471
RightToes  -1.11029e-010 1.2921e-014 -6.02303e-014
Spine  20.1984 1.06487 -0.214935
Spine1  -9.21408 1.04735 -0.107097
HEad  -24.4268 1.41596 0.451874
LeftShoulder1  1.09118 -3.24346 -8.72601
LeftArm  -67.1425 -65.8894 1.73841
LeftForeArm  40.1995 -47.2635 -9.21676
LeftHand  -0.386001 2.13459 13.6105
RightShoulder  4.4063 31.132 4.65253
RightArm  -69.3193 33.1645 -9.27536
RightForeArm  39.4241 54.7544 12.5887
RightHand  -0.889745 2.3393 -13.5215
LeftUpLeg  -37.415 -0.199001 4.8645
LeftLeg  75.9269 -0.209156 0.319354
LeftFoot  -31.9194 -1.13435 -7.30108
LeftToes  -1.9349e-011 -1.19469e-011 -2.02219e-012
